<mxfile host="app.diagrams.net" modified="2022-12-08T07:11:10.562Z" agent="5.0 (Windows NT 10.0; Win64; x64) AppleWebKit/537.36 (KHTML, like Gecko) Chrome/108.0.0.0 Safari/537.36" etag="bdn2_9abdxf6VJqtccYH" version="20.6.0" type="github">
  <diagram id="R2lEEEUBdFMjLlhIrx00" name="Page-1">
    <mxGraphModel dx="483" dy="784" grid="1" gridSize="10" guides="1" tooltips="1" connect="1" arrows="1" fold="1" page="1" pageScale="1" pageWidth="850" pageHeight="1100" math="0" shadow="0" extFonts="Permanent Marker^https://fonts.googleapis.com/css?family=Permanent+Marker">
      <root>
        <mxCell id="0" />
        <mxCell id="1" parent="0" />
        <mxCell id="7OI8YUhsGdWpLaV7Q7GV-1" value="회원" style="rounded=0;whiteSpace=wrap;html=1;" vertex="1" parent="1">
          <mxGeometry x="60" y="230" width="120" height="60" as="geometry" />
        </mxCell>
        <mxCell id="7OI8YUhsGdWpLaV7Q7GV-12" style="edgeStyle=orthogonalEdgeStyle;rounded=0;orthogonalLoop=1;jettySize=auto;html=1;exitX=1;exitY=0.5;exitDx=0;exitDy=0;entryX=0;entryY=0.5;entryDx=0;entryDy=0;endArrow=none;endFill=0;" edge="1" parent="1" source="7OI8YUhsGdWpLaV7Q7GV-2" target="7OI8YUhsGdWpLaV7Q7GV-10">
          <mxGeometry relative="1" as="geometry" />
        </mxCell>
        <mxCell id="7OI8YUhsGdWpLaV7Q7GV-40" value="" style="edgeStyle=none;shape=connector;rounded=0;orthogonalLoop=1;jettySize=auto;html=1;labelBackgroundColor=default;strokeColor=default;fontFamily=Helvetica;fontSize=11;fontColor=default;startArrow=none;startFill=0;endArrow=none;endFill=0;" edge="1" parent="1" source="7OI8YUhsGdWpLaV7Q7GV-2" target="7OI8YUhsGdWpLaV7Q7GV-1">
          <mxGeometry relative="1" as="geometry" />
        </mxCell>
        <mxCell id="7OI8YUhsGdWpLaV7Q7GV-2" value="&lt;u&gt;ID&lt;/u&gt;" style="ellipse;whiteSpace=wrap;html=1;" vertex="1" parent="1">
          <mxGeometry x="145" y="340" width="50" height="30" as="geometry" />
        </mxCell>
        <mxCell id="7OI8YUhsGdWpLaV7Q7GV-39" value="" style="edgeStyle=none;shape=connector;rounded=0;orthogonalLoop=1;jettySize=auto;html=1;labelBackgroundColor=default;strokeColor=default;fontFamily=Helvetica;fontSize=11;fontColor=default;startArrow=none;startFill=0;endArrow=none;endFill=0;" edge="1" parent="1" source="7OI8YUhsGdWpLaV7Q7GV-3" target="7OI8YUhsGdWpLaV7Q7GV-1">
          <mxGeometry relative="1" as="geometry" />
        </mxCell>
        <mxCell id="7OI8YUhsGdWpLaV7Q7GV-3" value="PW" style="ellipse;whiteSpace=wrap;html=1;" vertex="1" parent="1">
          <mxGeometry x="95" y="340" width="50" height="30" as="geometry" />
        </mxCell>
        <mxCell id="7OI8YUhsGdWpLaV7Q7GV-41" value="" style="edgeStyle=none;shape=connector;rounded=0;orthogonalLoop=1;jettySize=auto;html=1;labelBackgroundColor=default;strokeColor=default;fontFamily=Helvetica;fontSize=11;fontColor=default;startArrow=none;startFill=0;endArrow=none;endFill=0;" edge="1" parent="1" source="7OI8YUhsGdWpLaV7Q7GV-4" target="7OI8YUhsGdWpLaV7Q7GV-1">
          <mxGeometry relative="1" as="geometry" />
        </mxCell>
        <mxCell id="7OI8YUhsGdWpLaV7Q7GV-4" value="권한" style="ellipse;whiteSpace=wrap;html=1;" vertex="1" parent="1">
          <mxGeometry x="45" y="340" width="50" height="30" as="geometry" />
        </mxCell>
        <mxCell id="7OI8YUhsGdWpLaV7Q7GV-31" value="" style="edgeStyle=none;shape=connector;rounded=0;orthogonalLoop=1;jettySize=auto;html=1;labelBackgroundColor=default;strokeColor=default;fontFamily=Helvetica;fontSize=11;fontColor=default;startArrow=none;startFill=0;endArrow=none;endFill=0;" edge="1" parent="1" source="7OI8YUhsGdWpLaV7Q7GV-6" target="7OI8YUhsGdWpLaV7Q7GV-9">
          <mxGeometry relative="1" as="geometry" />
        </mxCell>
        <mxCell id="7OI8YUhsGdWpLaV7Q7GV-32" value="" style="edgeStyle=none;shape=connector;rounded=0;orthogonalLoop=1;jettySize=auto;html=1;labelBackgroundColor=default;strokeColor=default;fontFamily=Helvetica;fontSize=11;fontColor=default;startArrow=none;startFill=0;endArrow=none;endFill=0;" edge="1" parent="1" source="7OI8YUhsGdWpLaV7Q7GV-6" target="7OI8YUhsGdWpLaV7Q7GV-9">
          <mxGeometry relative="1" as="geometry" />
        </mxCell>
        <mxCell id="7OI8YUhsGdWpLaV7Q7GV-33" style="edgeStyle=none;shape=connector;rounded=0;orthogonalLoop=1;jettySize=auto;html=1;exitX=0.25;exitY=1;exitDx=0;exitDy=0;entryX=0.5;entryY=0;entryDx=0;entryDy=0;labelBackgroundColor=default;strokeColor=default;fontFamily=Helvetica;fontSize=11;fontColor=default;startArrow=none;startFill=0;endArrow=none;endFill=0;" edge="1" parent="1" source="7OI8YUhsGdWpLaV7Q7GV-6" target="7OI8YUhsGdWpLaV7Q7GV-7">
          <mxGeometry relative="1" as="geometry" />
        </mxCell>
        <mxCell id="7OI8YUhsGdWpLaV7Q7GV-34" style="edgeStyle=none;shape=connector;rounded=0;orthogonalLoop=1;jettySize=auto;html=1;exitX=0.5;exitY=1;exitDx=0;exitDy=0;entryX=0;entryY=0;entryDx=0;entryDy=0;labelBackgroundColor=default;strokeColor=default;fontFamily=Helvetica;fontSize=11;fontColor=default;startArrow=none;startFill=0;endArrow=none;endFill=0;" edge="1" parent="1" source="7OI8YUhsGdWpLaV7Q7GV-6" target="7OI8YUhsGdWpLaV7Q7GV-8">
          <mxGeometry relative="1" as="geometry" />
        </mxCell>
        <mxCell id="7OI8YUhsGdWpLaV7Q7GV-6" value="게시글" style="rounded=0;whiteSpace=wrap;html=1;" vertex="1" parent="1">
          <mxGeometry x="300" y="230" width="120" height="60" as="geometry" />
        </mxCell>
        <mxCell id="7OI8YUhsGdWpLaV7Q7GV-7" value="&lt;u&gt;번호&lt;/u&gt;" style="ellipse;whiteSpace=wrap;html=1;" vertex="1" parent="1">
          <mxGeometry x="250" y="350" width="50" height="30" as="geometry" />
        </mxCell>
        <mxCell id="7OI8YUhsGdWpLaV7Q7GV-8" value="제목" style="ellipse;whiteSpace=wrap;html=1;" vertex="1" parent="1">
          <mxGeometry x="350" y="350" width="50" height="30" as="geometry" />
        </mxCell>
        <mxCell id="7OI8YUhsGdWpLaV7Q7GV-9" value="내용" style="ellipse;whiteSpace=wrap;html=1;" vertex="1" parent="1">
          <mxGeometry x="300" y="350" width="50" height="30" as="geometry" />
        </mxCell>
        <mxCell id="7OI8YUhsGdWpLaV7Q7GV-36" style="edgeStyle=none;shape=connector;rounded=0;orthogonalLoop=1;jettySize=auto;html=1;exitX=1;exitY=0;exitDx=0;exitDy=0;entryX=0.5;entryY=1;entryDx=0;entryDy=0;labelBackgroundColor=default;strokeColor=default;fontFamily=Helvetica;fontSize=11;fontColor=default;startArrow=none;startFill=0;endArrow=none;endFill=0;" edge="1" parent="1" source="7OI8YUhsGdWpLaV7Q7GV-10" target="7OI8YUhsGdWpLaV7Q7GV-6">
          <mxGeometry relative="1" as="geometry" />
        </mxCell>
        <mxCell id="7OI8YUhsGdWpLaV7Q7GV-10" value="작성자 아이디&lt;br&gt;(Fk)" style="ellipse;whiteSpace=wrap;html=1;" vertex="1" parent="1">
          <mxGeometry x="300" y="410" width="50" height="30" as="geometry" />
        </mxCell>
        <mxCell id="7OI8YUhsGdWpLaV7Q7GV-35" style="edgeStyle=none;shape=connector;rounded=0;orthogonalLoop=1;jettySize=auto;html=1;exitX=1;exitY=0;exitDx=0;exitDy=0;entryX=0.9;entryY=1;entryDx=0;entryDy=0;entryPerimeter=0;labelBackgroundColor=default;strokeColor=default;fontFamily=Helvetica;fontSize=11;fontColor=default;startArrow=none;startFill=0;endArrow=none;endFill=0;" edge="1" parent="1" source="7OI8YUhsGdWpLaV7Q7GV-13" target="7OI8YUhsGdWpLaV7Q7GV-6">
          <mxGeometry relative="1" as="geometry" />
        </mxCell>
        <mxCell id="7OI8YUhsGdWpLaV7Q7GV-13" value="일시" style="ellipse;whiteSpace=wrap;html=1;" vertex="1" parent="1">
          <mxGeometry x="400" y="350" width="50" height="30" as="geometry" />
        </mxCell>
        <mxCell id="7OI8YUhsGdWpLaV7Q7GV-37" style="edgeStyle=none;shape=connector;rounded=0;orthogonalLoop=1;jettySize=auto;html=1;entryX=1;entryY=1;entryDx=0;entryDy=0;labelBackgroundColor=default;strokeColor=default;fontFamily=Helvetica;fontSize=11;fontColor=default;startArrow=none;startFill=0;endArrow=none;endFill=0;exitX=0.5;exitY=0;exitDx=0;exitDy=0;" edge="1" parent="1" source="7OI8YUhsGdWpLaV7Q7GV-14" target="7OI8YUhsGdWpLaV7Q7GV-6">
          <mxGeometry relative="1" as="geometry">
            <mxPoint x="325" y="490" as="sourcePoint" />
          </mxGeometry>
        </mxCell>
        <mxCell id="7OI8YUhsGdWpLaV7Q7GV-44" style="edgeStyle=none;shape=connector;rounded=0;orthogonalLoop=1;jettySize=auto;html=1;exitX=1;exitY=0.5;exitDx=0;exitDy=0;entryX=0;entryY=1;entryDx=0;entryDy=0;labelBackgroundColor=default;strokeColor=default;fontFamily=Helvetica;fontSize=11;fontColor=default;startArrow=none;startFill=0;endArrow=none;endFill=0;" edge="1" parent="1" source="7OI8YUhsGdWpLaV7Q7GV-14" target="7OI8YUhsGdWpLaV7Q7GV-42">
          <mxGeometry relative="1" as="geometry" />
        </mxCell>
        <mxCell id="7OI8YUhsGdWpLaV7Q7GV-14" value="카테고리&lt;br&gt;(FK)" style="ellipse;whiteSpace=wrap;html=1;" vertex="1" parent="1">
          <mxGeometry x="450" y="350" width="50" height="30" as="geometry" />
        </mxCell>
        <mxCell id="7OI8YUhsGdWpLaV7Q7GV-15" value="카테고리" style="rounded=0;whiteSpace=wrap;html=1;" vertex="1" parent="1">
          <mxGeometry x="550" y="230" width="120" height="60" as="geometry" />
        </mxCell>
        <mxCell id="7OI8YUhsGdWpLaV7Q7GV-38" value="" style="edgeStyle=none;shape=connector;rounded=0;orthogonalLoop=1;jettySize=auto;html=1;labelBackgroundColor=default;strokeColor=default;fontFamily=Helvetica;fontSize=11;fontColor=default;startArrow=none;startFill=0;endArrow=none;endFill=0;" edge="1" parent="1" source="7OI8YUhsGdWpLaV7Q7GV-17" target="7OI8YUhsGdWpLaV7Q7GV-15">
          <mxGeometry relative="1" as="geometry" />
        </mxCell>
        <mxCell id="7OI8YUhsGdWpLaV7Q7GV-17" value="&lt;span&gt;카테고리명&lt;/span&gt;" style="ellipse;whiteSpace=wrap;html=1;fontStyle=0" vertex="1" parent="1">
          <mxGeometry x="640" y="310" width="90" height="30" as="geometry" />
        </mxCell>
        <mxCell id="7OI8YUhsGdWpLaV7Q7GV-19" value="작성" style="rhombus;whiteSpace=wrap;html=1;" vertex="1" parent="1">
          <mxGeometry x="220" y="230" width="50" height="50" as="geometry" />
        </mxCell>
        <mxCell id="7OI8YUhsGdWpLaV7Q7GV-20" value="포함" style="rhombus;whiteSpace=wrap;html=1;" vertex="1" parent="1">
          <mxGeometry x="450" y="220" width="80" height="80" as="geometry" />
        </mxCell>
        <mxCell id="7OI8YUhsGdWpLaV7Q7GV-22" value="" style="endArrow=none;html=1;rounded=0;strokeColor=default;entryX=1;entryY=0.5;entryDx=0;entryDy=0;" edge="1" parent="1" source="7OI8YUhsGdWpLaV7Q7GV-20" target="7OI8YUhsGdWpLaV7Q7GV-6">
          <mxGeometry width="50" height="50" relative="1" as="geometry">
            <mxPoint x="400" y="610" as="sourcePoint" />
            <mxPoint x="450" y="560" as="targetPoint" />
          </mxGeometry>
        </mxCell>
        <mxCell id="7OI8YUhsGdWpLaV7Q7GV-23" value="" style="endArrow=none;html=1;rounded=0;strokeColor=default;exitX=1;exitY=0.5;exitDx=0;exitDy=0;entryX=0;entryY=0.5;entryDx=0;entryDy=0;" edge="1" parent="1" source="7OI8YUhsGdWpLaV7Q7GV-20" target="7OI8YUhsGdWpLaV7Q7GV-15">
          <mxGeometry width="50" height="50" relative="1" as="geometry">
            <mxPoint x="400" y="610" as="sourcePoint" />
            <mxPoint x="450" y="560" as="targetPoint" />
          </mxGeometry>
        </mxCell>
        <mxCell id="7OI8YUhsGdWpLaV7Q7GV-28" value="" style="edgeStyle=none;orthogonalLoop=1;jettySize=auto;html=1;rounded=0;strokeColor=default;exitX=1;exitY=0.5;exitDx=0;exitDy=0;entryX=0;entryY=0.5;entryDx=0;entryDy=0;startArrow=none;startFill=0;endArrow=none;endFill=0;" edge="1" parent="1" source="7OI8YUhsGdWpLaV7Q7GV-19" target="7OI8YUhsGdWpLaV7Q7GV-6">
          <mxGeometry width="80" relative="1" as="geometry">
            <mxPoint x="240" y="360" as="sourcePoint" />
            <mxPoint x="320" y="360" as="targetPoint" />
            <Array as="points" />
          </mxGeometry>
        </mxCell>
        <mxCell id="7OI8YUhsGdWpLaV7Q7GV-29" value="" style="edgeStyle=none;orthogonalLoop=1;jettySize=auto;html=1;rounded=0;labelBackgroundColor=default;strokeColor=default;fontFamily=Helvetica;fontSize=11;fontColor=default;startArrow=none;startFill=0;endArrow=none;endFill=0;shape=connector;entryX=1;entryY=0.5;entryDx=0;entryDy=0;" edge="1" parent="1" target="7OI8YUhsGdWpLaV7Q7GV-1">
          <mxGeometry width="80" relative="1" as="geometry">
            <mxPoint x="220" y="260" as="sourcePoint" />
            <mxPoint x="300" y="260" as="targetPoint" />
            <Array as="points" />
          </mxGeometry>
        </mxCell>
        <mxCell id="7OI8YUhsGdWpLaV7Q7GV-43" style="edgeStyle=none;shape=connector;rounded=0;orthogonalLoop=1;jettySize=auto;html=1;exitX=0.5;exitY=0;exitDx=0;exitDy=0;labelBackgroundColor=default;strokeColor=default;fontFamily=Helvetica;fontSize=11;fontColor=default;startArrow=none;startFill=0;endArrow=none;endFill=0;" edge="1" parent="1" source="7OI8YUhsGdWpLaV7Q7GV-42" target="7OI8YUhsGdWpLaV7Q7GV-15">
          <mxGeometry relative="1" as="geometry" />
        </mxCell>
        <mxCell id="7OI8YUhsGdWpLaV7Q7GV-42" value="&lt;span&gt;카테고리번호&lt;/span&gt;" style="ellipse;whiteSpace=wrap;html=1;fontStyle=4" vertex="1" parent="1">
          <mxGeometry x="530" y="310" width="90" height="30" as="geometry" />
        </mxCell>
        <mxCell id="7OI8YUhsGdWpLaV7Q7GV-47" style="edgeStyle=none;shape=connector;rounded=0;orthogonalLoop=1;jettySize=auto;html=1;exitX=1;exitY=0.5;exitDx=0;exitDy=0;entryX=1.02;entryY=0.167;entryDx=0;entryDy=0;entryPerimeter=0;labelBackgroundColor=default;strokeColor=default;fontFamily=Helvetica;fontSize=11;fontColor=default;startArrow=none;startFill=0;endArrow=none;endFill=0;" edge="1" parent="1" source="7OI8YUhsGdWpLaV7Q7GV-14" target="7OI8YUhsGdWpLaV7Q7GV-14">
          <mxGeometry relative="1" as="geometry" />
        </mxCell>
      </root>
    </mxGraphModel>
  </diagram>
</mxfile>
